<svg width="79" height="79" fill="#ffffff" version="1.1" viewBox="0 0 79 79" xmlns="http://www.w3.org/2000/svg"><path d="m76.201 17.959c-1.1398-8.3389-8.524-14.91-17.277-16.184-1.4768-0.21517-7.0723-0.99826-20.034-0.99826h-0.0968c-12.965 0-15.747 0.78309-17.224 0.99826-8.5097 1.2381-16.281 7.143-18.166 15.581-0.90688 4.1553-1.0037 8.7621-0.83519 12.988 0.24016 6.0601 0.28676 12.11 0.84595 18.145 0.38658 4.009 1.061 7.9861 2.0181 11.902 1.7923 7.2312 9.0474 13.249 16.155 15.704 7.6103 2.5603 15.794 2.9854 23.636 1.2276 0.8626-0.1976 1.7158-0.4268 2.5593-0.6879 1.9034-0.5961 4.1366-1.2628 5.7783-2.4339 0.0225-0.0164 0.041-0.0376 0.054-0.0621 0.013-0.0244 0.0203-0.0514 0.0212-0.079v-5.8484c-4e-4 -0.0258-0.0066-0.0512-0.0183-0.0743-0.0116-0.0231-0.0283-0.0433-0.049-0.0592-0.0206-0.0159-0.0446-0.027-0.0701-0.0326-0.0256-0.0056-0.0521-0.0055-0.0776 3e-4 -5.0242 1.181-10.173 1.773-15.338 1.7637-8.8896 0-11.28-4.1518-11.965-5.8802-0.5503-1.4938-0.8998-3.0521-1.0395-4.6351-0.0014-0.0265 0.0036-0.0531 0.0145-0.0774 0.0109-0.0244 0.0276-0.0458 0.0485-0.0627 0.021-0.0168 0.0457-0.0285 0.0721-0.0342s0.0538-0.0052 0.08 0.0015c4.9405 1.173 10.005 1.765 15.087 1.7637 1.2223 0 2.441 0 3.6634-0.0317 5.1115-0.1411 10.499-0.3986 15.528-1.3652 0.1255-0.0246 0.2509-0.0458 0.3585-0.0776 7.9325-1.4991 15.482-6.2047 16.249-18.12 0.0287-0.4691 0.1004-4.9137 0.1004-5.4005 0.0036-1.6543 0.5413-11.736-0.0789-17.93zm-12.209 29.733h-8.3411v-20.106c0-4.2329-1.7923-6.3917-5.4378-6.3917-4.0075 0-6.0148 2.5538-6.0148 7.5981v11.006h-8.291v-11.006c0-5.0443-2.0109-7.5981-6.0184-7.5981-3.624 0-5.4342 2.1588-5.4378 6.3917v20.106h-8.334v-20.717c0-4.2329 1.0981-7.5957 3.2942-10.088 2.2654-2.4868 5.237-3.7637 8.9255-3.7637 4.2691 0 7.4952 1.6155 9.6459 4.8431l2.0755 3.4287 2.079-3.4287c2.1507-3.2276 5.3768-4.8431 9.6388-4.8431 3.6849 0 6.6564 1.2769 8.929 3.7637 2.1962 2.4904 3.2942 5.8532 3.2942 10.088z" fill="inherit"/></svg>
